# xmcd CD database file
#
# Track frame offsets:
#	150
#	13556
#	26639
#	40749
#	53035
#	66782
#	81326
#	96216
#	109674
#	136296
#	148427
#	160768
#	173812
#	186617
#	200601
#	214336
#	227080
#	240998
#	253735
#	269078
#	285505
#	299474
#	312357
#
# Disc length: 4342 seconds
#
# Revision: 0
# Processed by: cddbd v1.4PL0 Copyright (c) Steve Scherf et al.
# Submitted via: CDex 1.50Beta5
#
DISCID=6010f417
DTITLE=Dexter Gordon - The Complete Savoy and Dial Master Takes
DYEAR=1999
DGENRE=Jazz
TTITLE0=Blow Mr. Dexter
TTITLE1=Dexter's Deck
TTITLE2=Dexter's Cuttin' Out
TTITLE3=Dexter's Minor Mad
TTITLE4=Long Tall Dexter
TTITLE5=Dexter Rides Again
TTITLE6=I Can't Escape From You
TTITLE7=Dexter Dig In
TTITLE8=Settin' The Place
TTITLE9=So Easy
TTITLE10=Dexter's Riff
TTITLE11=Dexter's Mood
TTITLE12=Dextrose
TTITLE13=Index
TTITLE14=Dextevity
TTITLE15=Mischievous Lady
TTITLE16=Lullaby In Rhythm
TTITLE17=Iridescence (Chromatic Aperration)
TTITLE18=It's The Talk Of The Town
TTITLE19=Blues Bikini
TTITLE20=Ghost Of A Chance
TTITLE21=Sweet And Lovely
TTITLE22=Blue 'N' Boogie
EXTD=YEAR: 1999
EXTT0=
EXTT1=
EXTT2=
EXTT3=
EXTT4=
EXTT5=
EXTT6=
EXTT7=
EXTT8=
EXTT9=
EXTT10=
EXTT11=
EXTT12=
EXTT13=
EXTT14=
EXTT15=
EXTT16=
EXTT17=
EXTT18=
EXTT19=
EXTT20=
EXTT21=
EXTT22=
PLAYORDER=
